<svg width="174" height="403" fill="none" xmlns="http://www.w3.org/2000/svg"><mask id="a" style="mask-type:alpha" maskUnits="userSpaceOnUse" x="0" y="0" width="1920" height="404"><path fill="#222220" d="M0 0h174v404H0z"/></mask><g style="mix-blend-mode:screen" mask="url(#a)"><path d="m87.172 405.093.223-.093h.13a1.56 1.56 0 0 0 .575-1.021 1.43 1.43 0 0 0-1.095-1.542H86.002a1.35 1.35 0 0 0-.539.966 1.539 1.539 0 0 0 .65 1.393H87.172v.297Z" fill="#DFCBB3" style="mix-blend-mode:screen"/><path d="M24.946 399.299h.947c.23-.029.448-.118.631-.26l.149-.148.13-.242V397.814a1.634 1.634 0 0 0-.26-.669l-.149-.13-.26-.148H25.224l-.148-.13-.353-.223h-.65c-.408.087-.774.31-1.04.631l-.204.26v1.096l.093.204v.148a1.661 1.661 0 0 0 1.281.595c.256.017.513-.034.743-.149Z" fill="#D59C38" style="mix-blend-mode:screen"/><path d="m30.46 363.386-.26.501v.65l.094.26.13.205v.352c.17.421.453.787.817 1.059l.278.093h.724l.483-.335.186-.26.13-.408V364.927c0-.185-.111-.39-.186-.594a1.856 1.856 0 0 0-1.597-1.226h-.278l-.335.186-.185.093Z" fill="#662B02" style="mix-blend-mode:screen"/><path d="m15.735 403.459.112.26v.241l.093.093.241.204H16.478a1.43 1.43 0 0 0 1.374-.483 1.554 1.554 0 0 0 .223-1.485 1.467 1.467 0 0 0-.947-.892 1.349 1.349 0 0 0-1.114.168 1.373 1.373 0 0 0-.279 1.894Z" fill="#F9F6D2" style="mix-blend-mode:screen"/><path d="M63.867 374.806v-1.188l-.148-.483-.112-.186-.241-.223-.186-.13a1.379 1.379 0 0 0-1.163.067 1.376 1.376 0 0 0-.694.936l.149.316-.112.241.223.539v.222a1.348 1.348 0 0 0 1.281.687 1.261 1.261 0 0 0 1.003-.798Z" fill="#EADECF" style="mix-blend-mode:screen"/><path d="M29.755 372.021h.167l.242-.148.148-.13.242-.353V370.758a1.504 1.504 0 0 0-.687-1.114h-.817a1.32 1.32 0 0 0-.873 1.579 1.337 1.337 0 0 0 1.578.798Z" fill="#C47F1E" style="mix-blend-mode:screen"/><path d="m.508 405.613.13.223.242.26.223.13.52.13h.241l.297-.093.13.111.279.149h.835c.296-.017.58-.12.817-.297a1.265 1.265 0 0 0 .279-1.597l-.112-.13-.167-.167-.148-.093-.372-.167h-.315v-.316a1.856 1.856 0 0 0-.613-1.411l-.241-.112h-.65l-.502.223-.223.167-.204.297-.093.26c-.034.186-.09.366-.167.539a3.063 3.063 0 0 0-.186 1.894Z" fill="#E7B851" style="mix-blend-mode:screen"/><path d="M17.908 381.138v.427a1.688 1.688 0 0 0 1.318 1.022 1.618 1.618 0 0 0 1.393-.446 2.018 2.018 0 0 0 .594-1.857 1.725 1.725 0 0 0-1.225-1.244h-.613l-.371.186h-.149l-.186.204v.111l-.13.168c-.288.31-.48.697-.557 1.114l-.074.315Z" fill="#EADECF" style="mix-blend-mode:screen"/><path d="M10.35 378.26a1.599 1.599 0 0 0-1.021.743v.65l.111.408v.167l.149.205.13.13c.219.143.466.237.724.278l.297.112H11.67l.26-.167.167-.168a1.485 1.485 0 0 0-.446-2.042 1.625 1.625 0 0 0-1.3-.316Z" fill="#793903" style="mix-blend-mode:screen"/><path d="m15.327 383.069.13-.204v-.148a1.543 1.543 0 0 0-.167-1.152 1.391 1.391 0 0 0-1.857-.557h-.13l-.186.204V381.547c-.093.377-.04.774.149 1.114a1.622 1.622 0 0 0 1.374.724h.52l.297-.241-.13-.075Z" fill="#C47F1E" style="mix-blend-mode:screen"/><path d="m41.825 313.769.149-.241V312.395a1.359 1.359 0 0 0-1.226-.761 1.484 1.484 0 0 0-1.3.743 1.408 1.408 0 0 0-.092 1.299 1.206 1.206 0 0 0 .817.743 1.334 1.334 0 0 0 1.652-.65Z" fill="#9F5504" style="mix-blend-mode:screen"/><path d="m-.55 326.879.148.13.26.13h.39l.205.093h1.114l.204-.111a1.396 1.396 0 0 0 0-2.062h-.353l-.148-.204H.675l-.185-.111a1.3 1.3 0 0 0-1.226.742 1.245 1.245 0 0 0 .186 1.393Z" fill="#E7D8C6" style="mix-blend-mode:screen"/><path d="M55.492 334.715V335.718l.223.353.13.13.205.149h.167a1.486 1.486 0 0 0 1.244-.186 1.525 1.525 0 0 0 .631-1.04V334.548l-.093-.167-.241-.316-.149-.129-.223-.13H56.18l-.352.241-.223.26-.13.223.018.185Z" fill="#431B06" style="mix-blend-mode:screen"/><path d="m12.355 369.774.428-.352.13-.168.13-.278v-.186a1.503 1.503 0 0 0-.446-1.207 1.31 1.31 0 0 0-1.114-.315h-.149l-.204.111H11l-.26.279-.111.129v.39a1.487 1.487 0 0 0 .928 1.542h.631l.167.055Z" fill="#9F5504" style="mix-blend-mode:screen"/><path d="m1.548 396.514.112.13h.093l.278.204h.39a1.249 1.249 0 0 0 1.263-.65 1.504 1.504 0 0 0-.13-1.671l-.186-.149-.316-.148h-.984l-.278.185-.167.168a1.555 1.555 0 0 0-.149 1.541l.074.39Z" fill="#F9DD85" style="mix-blend-mode:screen"/><path d="M34.453 315.737V315.273a1.282 1.282 0 0 0-1.485-.984H32.8l-.204.111-.13.112-.148.111-.186.186v.148l-.148.335v.538a1.46 1.46 0 0 0 .668.929 1.413 1.413 0 0 0 1.133.092l.315-.13.149-.111.186-.204v-.167l.13-.409-.112-.093Z" fill="#E3D1BD" style="mix-blend-mode:screen"/><path d="m1.233 314.531-.168.13-.185.223-.112.185a1.269 1.269 0 0 0-.13 1.226l.112.186.223.204.167.093.52.185h.093c.309.014.614-.07.872-.241l.149-.111.111-.168.13-.259v-1.04l-.111-.186a1.336 1.336 0 0 0-1.671-.427Z" fill="#D6BDA1" style="mix-blend-mode:screen"/><path d="M27.75 362.161h-1.43l-.26.13-.149.111a1.637 1.637 0 0 0-.241 1.857l.223.13.334.186.223.185h.836l.297-.185-.186-.297.353.111-.223-.186h-.093l.39.242a1.427 1.427 0 0 0 .501-1.151 1.244 1.244 0 0 0-.575-1.133Z" fill="#F9D46B" style="mix-blend-mode:screen"/><path d="M2.755 278.172V277.726a1.299 1.299 0 0 0-1.652-.668l-.149.092-.186.149-.111.13-.13.13-.149.223v1.04a1.379 1.379 0 0 0 .855.78 1.32 1.32 0 0 0 1.114-.13l.297-.186.111-.149.13-.222v-.595l-.13-.148Z" fill="#F9E59F" style="mix-blend-mode:screen"/><path d="m16.292 319.043.316.148H17.165l.539-.167.223-.167.24-.297.112-.241v-.093a1.467 1.467 0 0 0-1.132-1.857h-.595l-.334.186-.148.111-.168.186v.167a1.651 1.651 0 0 0 .39 2.024Z" fill="#EADECF" style="mix-blend-mode:screen"/><path d="m6.024 309.74.111-.205v-.167c.057-.396-.036-.8-.26-1.132a1.426 1.426 0 0 0-1.857-.428l-.111.112-.297.39v.26a1.467 1.467 0 0 0 .86 1.588 1.5 1.5 0 0 0 .792.12h.167l.038-.111.13-.093.278-.241.149-.093Z" fill="#E7D8C6" style="mix-blend-mode:screen"/><path d="m159.955 804.34 32.827-32.826-673.598-673.593-32.826 32.827L159.955 804.34Z" fill="url(#b)"/><path d="m186.877 777.413 5.909-5.909-673.598-673.592-5.909 5.908 673.598 673.593Z" fill="url(#c)"/><path d="m343.592 688.423 2.048-2.048-715.956-715.952-2.049 2.048 715.957 715.952Z" fill="url(#d)"/><path d="m247.02 788.685 2.049-2.049-715.957-715.951-2.048 2.048L247.02 788.685Z" fill="url(#e)"/><path d="m130.957 851.831 2.048-2.048-715.957-715.952-2.048 2.048 715.957 715.952Z" fill="url(#f)"/><path d="m379.788 689.677 2.048-2.049L-334.12-28.323l-2.049 2.048 715.957 715.952Z" fill="url(#g)"/><path d="m454.196 688 2.049-2.049L-259.712-30l-2.048 2.048L454.196 688Z" fill="url(#h)"/><path d="m204.814 836.494 2.049-2.048-715.957-715.952-2.048 2.048 715.956 715.952Z" fill="url(#i)"/><path d="M-118.15 378.557c-87.016-87.015-151.675-163.409-144.433-170.688 7.242-7.28 83.674 57.397 170.69 144.413C-4.877 439.297 59.8 515.692 52.54 522.971c-7.26 7.279-83.674-57.398-170.69-144.414Z" fill="url(#j)" style="mix-blend-mode:screen"/><path d="M-94.808 259.528c-48.875-48.911-85.234-91.881-81.149-96.059 4.086-4.178 47.037 32.367 96.004 81.297 48.968 48.93 85.234 91.881 81.148 95.966-4.085 4.085-47.036-32.274-96.003-81.204Z" fill="url(#k)" style="mix-blend-mode:screen"/></g><defs><linearGradient id="b" x1="237.924" y1="846.857" x2="-570.912" y2="43.267" gradientUnits="userSpaceOnUse"><stop stop-color="#F4EFEA"/><stop offset=".06" stop-color="#F3EDE8"/><stop offset=".53" stop-color="#EEE3D8"/><stop offset=".99" stop-color="#E3D1BD"/></linearGradient><linearGradient id="c" x1="-403.683" y1="180.949" x2="4.333" y2="588.968" gradientUnits="userSpaceOnUse"><stop stop-color="#F4E0AE"/><stop offset=".2" stop-color="#EACD8C"/><stop offset=".32" stop-color="#E5C47C"/><stop offset=".36" stop-color="#E0BE77"/><stop offset=".42" stop-color="#D2AD69"/><stop offset=".5" stop-color="#BC9152"/><stop offset=".54" stop-color="#AA7A40"/><stop offset=".62" stop-color="#C09657"/><stop offset=".72" stop-color="#D4AF6B"/><stop offset=".8" stop-color="#E1BF78"/><stop offset=".87" stop-color="#E5C47C"/></linearGradient><linearGradient id="d" x1="-286.333" y1="56.611" x2="147.34" y2="490.287" gradientUnits="userSpaceOnUse"><stop stop-color="#F4E0AE"/><stop offset=".2" stop-color="#EACD8C"/><stop offset=".32" stop-color="#E5C47C"/><stop offset=".36" stop-color="#E0BE77"/><stop offset=".42" stop-color="#D2AD69"/><stop offset=".5" stop-color="#BC9152"/><stop offset=".54" stop-color="#AA7A40"/><stop offset=".62" stop-color="#C09657"/><stop offset=".72" stop-color="#D4AF6B"/><stop offset=".8" stop-color="#E1BF78"/><stop offset=".87" stop-color="#E5C47C"/></linearGradient><linearGradient id="e" x1="-382.905" y1="156.873" x2="50.768" y2="590.549" gradientUnits="userSpaceOnUse"><stop stop-color="#F4E0AE"/><stop offset=".2" stop-color="#EACD8C"/><stop offset=".32" stop-color="#E5C47C"/><stop offset=".36" stop-color="#E0BE77"/><stop offset=".42" stop-color="#D2AD69"/><stop offset=".5" stop-color="#BC9152"/><stop offset=".54" stop-color="#AA7A40"/><stop offset=".62" stop-color="#C09657"/><stop offset=".72" stop-color="#D4AF6B"/><stop offset=".8" stop-color="#E1BF78"/><stop offset=".87" stop-color="#E5C47C"/></linearGradient><linearGradient id="f" x1="-498.955" y1="220.033" x2="-65.282" y2="653.708" gradientUnits="userSpaceOnUse"><stop stop-color="#F4E0AE"/><stop offset=".2" stop-color="#EACD8C"/><stop offset=".32" stop-color="#E5C47C"/><stop offset=".36" stop-color="#E0BE77"/><stop offset=".42" stop-color="#D2AD69"/><stop offset=".5" stop-color="#BC9152"/><stop offset=".54" stop-color="#AA7A40"/><stop offset=".62" stop-color="#C09657"/><stop offset=".72" stop-color="#D4AF6B"/><stop offset=".8" stop-color="#E1BF78"/><stop offset=".87" stop-color="#E5C47C"/></linearGradient><linearGradient id="g" x1="-250.032" y1="57.813" x2="183.641" y2="491.489" gradientUnits="userSpaceOnUse"><stop stop-color="#F4E0AE"/><stop offset=".2" stop-color="#EACD8C"/><stop offset=".32" stop-color="#E5C47C"/><stop offset=".36" stop-color="#E0BE77"/><stop offset=".42" stop-color="#D2AD69"/><stop offset=".5" stop-color="#BC9152"/><stop offset=".54" stop-color="#AA7A40"/><stop offset=".62" stop-color="#C09657"/><stop offset=".72" stop-color="#D4AF6B"/><stop offset=".8" stop-color="#E1BF78"/><stop offset=".87" stop-color="#E5C47C"/></linearGradient><linearGradient id="h" x1="-175.716" y1="56.175" x2="257.957" y2="489.851" gradientUnits="userSpaceOnUse"><stop stop-color="#F4E0AE"/><stop offset=".2" stop-color="#EACD8C"/><stop offset=".32" stop-color="#E5C47C"/><stop offset=".36" stop-color="#E0BE77"/><stop offset=".42" stop-color="#D2AD69"/><stop offset=".5" stop-color="#BC9152"/><stop offset=".54" stop-color="#AA7A40"/><stop offset=".62" stop-color="#C09657"/><stop offset=".72" stop-color="#D4AF6B"/><stop offset=".8" stop-color="#E1BF78"/><stop offset=".87" stop-color="#E5C47C"/></linearGradient><linearGradient id="i" x1="-424.993" y1="204.617" x2="8.68" y2="638.293" gradientUnits="userSpaceOnUse"><stop stop-color="#F4E0AE"/><stop offset=".2" stop-color="#EACD8C"/><stop offset=".32" stop-color="#E5C47C"/><stop offset=".36" stop-color="#E0BE77"/><stop offset=".42" stop-color="#D2AD69"/><stop offset=".5" stop-color="#BC9152"/><stop offset=".54" stop-color="#AA7A40"/><stop offset=".62" stop-color="#C09657"/><stop offset=".72" stop-color="#D4AF6B"/><stop offset=".8" stop-color="#E1BF78"/><stop offset=".87" stop-color="#E5C47C"/></linearGradient><radialGradient id="j" cx="0" cy="0" r="1" gradientUnits="userSpaceOnUse" gradientTransform="matrix(-12.60842 12.60842 -157.60562 -157.60562 -47.692 308.063)"><stop stop-color="#8C4703"/><stop offset=".09" stop-color="#7B3F03"/><stop offset=".49" stop-color="#391D01"/><stop offset=".78" stop-color="#100800"/><stop offset=".93"/></radialGradient><radialGradient id="k" cx="0" cy="0" r="1" gradientUnits="userSpaceOnUse" gradientTransform="rotate(135 -163.438 141.589) scale(11.1472 124.848)"><stop stop-color="#F9EEB8"/><stop offset=".04" stop-color="#EBE1AE"/><stop offset=".23" stop-color="#A59D7A"/><stop offset=".41" stop-color="#6A654E"/><stop offset=".58" stop-color="#3C3A2D"/><stop offset=".72" stop-color="#1B1A14"/><stop offset=".85" stop-color="#070705"/><stop offset=".93"/></radialGradient></defs></svg>